<svg xmlns="http://www.w3.org/2000/svg" viewBox="0 0 117.49 43.35">
  <defs>
    <style>
      .cls-1 {
        fill: #1a171b;
      }
    </style>
  </defs>
  <title>Zasób 4</title>
  <g id="Warstwa_2" data-name="Warstwa 2">
    <g id="Warstwa_1-2" data-name="Warstwa 1">
      <polygon class="cls-1" points="116.03 0 114.22 4.87 114.21 4.87 106.39 26.05 106.38 26.02 104.72 30.54 105.44 23.63 100.08 10.1 96.06 0 93.83 0 85.72 0 83.48 0 84.05 1.33 84.05 1.33 85.96 5.8 78.49 25.94 78.47 25.88 76.75 30.54 77.49 23.42 72.21 10.1 68.2 0 68.07 0 65.91 0 57.8 0 55.79 0 55.61 0 56.18 1.33 56.19 1.33 57.71 4.91 58.07 5.83 56.28 10.69 50.59 26.01 50.59 26 48.91 30.54 49.64 23.6 44.29 10.1 40.27 0 40.2 0 27.92 0 27.69 0 28.26 1.33 28.27 1.33 30.17 5.8 22.66 26.05 22.66 26.04 21 30.54 21.71 23.66 15.77 8.67 12.28 0 0 0 3.95 10.06 17.05 43.35 17.71 43.35 30.93 7.79 39.94 30.56 44.97 43.35 45 43.35 45.64 43.35 45.66 43.35 58.85 7.81 59.73 10.06 72.84 43.35 72.92 43.35 73.5 43.35 73.59 43.35 86.75 7.88 100.79 43.35 101.45 43.35 114.84 7.27 117.49 0 116.03 0"/>
    </g>
  </g>
</svg>
