<svg xmlns="http://www.w3.org/2000/svg" xmlns:xlink="http://www.w3.org/1999/xlink" viewBox="0 0 133.8 113.8">
  <defs>
    <style>
      .cls-1 {
        fill: url(#Gradient_bez_nazwy_15);
      }

      .cls-2 {
        fill: url(#Gradient_bez_nazwy_15-2);
      }

      .cls-3, .cls-4, .cls-5 {
        fill: none;
        stroke-miterlimit: 10;
        stroke-width: 1.6px;
      }

      .cls-3, .cls-4 {
        stroke: #4f45b4;
      }

      .cls-3, .cls-5 {
        stroke-linecap: round;
      }

      .cls-5 {
        stroke: #fff;
      }
    </style>
    <linearGradient id="Gradient_bez_nazwy_15" data-name="Gradient bez nazwy 15" x1="47.33" y1="143.4" x2="144" y2="38.07" gradientUnits="userSpaceOnUse">
      <stop offset="0" stop-color="#4f45b4"/>
      <stop offset="1" stop-color="#ab45b4"/>
    </linearGradient>
    <linearGradient id="Gradient_bez_nazwy_15-2" x1="-20.47" y1="81.18" x2="76.2" y2="-24.15" xlink:href="#Gradient_bez_nazwy_15"/>
  </defs>
  <title>Zasób 1</title>
  <g id="Warstwa_2" data-name="Warstwa 2">
    <g id="Warstwa_1-2" data-name="Warstwa 1">
      <g>
        <path class="cls-1" d="M119.65,35.59S137.93,49,132.93,58c-3.11,5.6-11.07,9.81-9,16s7.08,14.23-4.28,15.26V35.59Z"/>
        <path class="cls-2" d="M82.5,17.15S67,1.61,54.63,2.56C41.21,3.6,46.37,13.92,35,11.85S20.57-4.66,9.22,1.53C.86,6.09,5.09,16,7.15,23.21s2.07,12.38-3.1,18.57-6.64,14,3.1,23.74c9.29,9.29,9.29,19.61,9.29,19.61V23.74A6.72,6.72,0,0,1,23.17,17Z"/>
        <g>
          <path class="cls-3" d="M45,39.05l-6.43,5.63a.45.45,0,0,0,0,.72L45,51"/>
          <path class="cls-3" d="M64.62,51.5l6.45-5.65a.45.45,0,0,0,0-.7l-6.46-6.1"/>
          <line class="cls-3" x1="59.26" y1="39.27" x2="49.37" y2="51.28"/>
        </g>
        <path class="cls-3" d="M112.43,53.81V68.35a1,1,0,0,1-1.05,1.05H74a1,1,0,0,1-1-1.05V53.81Z"/>
        <path class="cls-3" d="M112.43,50.71v3.1H72.94v-3.1a1,1,0,0,1,1-1.05h37.39A1,1,0,0,1,112.43,50.71Z"/>
        <path class="cls-3" d="M84.93,28.11V49.66H74a1,1,0,0,0-1,1.05v6.47H25.75a1,1,0,0,1-1.05-1v-28a1,1,0,0,1,1.05-1H83.88A1,1,0,0,1,84.93,28.11Z"/>
        <line class="cls-3" x1="24.7" y1="33.41" x2="84.94" y2="33.41"/>
        <g>
          <line class="cls-3" x1="30.89" y1="67.57" x2="60.82" y2="67.57"/>
          <line class="cls-3" x1="30.89" y1="72.46" x2="60.82" y2="72.46"/>
        </g>
        <line class="cls-3" x1="30.89" y1="77.62" x2="60.82" y2="77.62"/>
        <path class="cls-4" d="M115.52,95.22H20.68c-2.28,0-4.13-1.85-4.13-5.16V20.25c0-1.25,1.85-3.1,4.13-3.1h94.84a4.13,4.13,0,0,1,4.13,4.13V91.09A4.13,4.13,0,0,1,115.52,95.22Z"/>
        <line class="cls-4" x1="16.26" y1="87.6" x2="119.65" y2="87.2"/>
        <path class="cls-3" d="M77.91,96.25v5.4S77.28,113,89.72,113H46.43c12.43,0,11.81-11.35,11.81-11.35v-5.4"/>
        <g>
          <g>
            <line class="cls-5" x1="14.23" y1="47.99" x2="19.94" y2="53.69"/>
            <line class="cls-5" x1="8.99" y1="42.74" x2="10.96" y2="44.71"/>
          </g>
          <line class="cls-5" x1="13.37" y1="54.42" x2="2.64" y2="43.69"/>
        </g>
        <g>
          <line class="cls-5" x1="59.65" y1="4.64" x2="65.35" y2="10.34"/>
          <line class="cls-5" x1="58.78" y1="11.07" x2="50.9" y2="3.19"/>
        </g>
        <g>
          <line class="cls-3" x1="106.23" y1="102.68" x2="98.49" y2="95.97"/>
          <line class="cls-3" x1="99.01" y1="100.61" x2="93.33" y2="95.97"/>
        </g>
        <g>
          <circle class="cls-4" cx="93.25" cy="77.66" r="3.88"/>
          <path class="cls-4" d="M98.11,87.37a4.86,4.86,0,1,0-9.71,0"/>
        </g>
      </g>
    </g>
  </g>
</svg>
