<svg xmlns="http://www.w3.org/2000/svg" xmlns:xlink="http://www.w3.org/1999/xlink" viewBox="0 0 111.56 116.15">
  <defs>
    <style>
      .cls-1 {
        fill: url(#Gradient_bez_nazwy_15);
      }

      .cls-2 {
        fill: url(#Gradient_bez_nazwy_15-2);
      }

      .cls-3, .cls-4 {
        fill: none;
        stroke-linecap: round;
        stroke-miterlimit: 10;
        stroke-width: 1.6px;
      }

      .cls-3 {
        stroke: #fff;
      }

      .cls-4 {
        stroke: #4f45b4;
      }
    </style>
    <linearGradient id="Gradient_bez_nazwy_15" data-name="Gradient bez nazwy 15" x1="-7.83" y1="57.45" x2="73.64" y2="11.72" gradientTransform="translate(6.19 2.25)" gradientUnits="userSpaceOnUse">
      <stop offset="0" stop-color="#4f45b4"/>
      <stop offset="1" stop-color="#ab45b4"/>
    </linearGradient>
    <linearGradient id="Gradient_bez_nazwy_15-2" x1="28.99" y1="123.05" x2="110.46" y2="77.33" xlink:href="#Gradient_bez_nazwy_15"/>
  </defs>
  <title>Zasób 4</title>
  <g id="Warstwa_2" data-name="Warstwa 2">
    <g id="Warstwa_1-2" data-name="Warstwa 1">
      <g>
        <path class="cls-1" d="M80.3,46.61H41.85a1.07,1.07,0,0,0-1.07,1.07s-.26,30.48-.67,30.64c-4.18,1.61-8.09,2.55-11.48,1.4a1,1,0,0,1-.7-1V28.45a2.32,2.32,0,0,0-2.32-2.32H19a2.33,2.33,0,0,0-2.32,2.32v42.6c-6.23-3.74-6.23-11.22-6.23-19.95S0,47.12,0,32.62,13.49,24.26,17.19,15c4-10,6.6-15,20-15s8.19,8.7,20.66,8.7c7.51,0,10.58,4.09,7.49,8.73-2.5,3.74,5.86,7.16,6.23,8.73.16.67-18.39,0-18.39,0a1,1,0,0,0-.3.05l-9.25,2.76a1.06,1.06,0,0,0,0,2l7.86,2.62a1.2,1.2,0,0,0,.33,0l20.23,0a.44.44,0,0,0,.1.22C79.05,39.88,81,46.61,80.3,46.61Z"/>
        <path class="cls-2" d="M62.84,98.48H92.77v-20c0-3.48-.11-10-.11-10s17.57-6.21,18.81,7.51-10.62,4.62-5,18.7c5,12.47-5,21.2-12.46,18.71-11.66-3.89-15.2,1.93-22.45,2.49C55.36,117.19,62.84,98.48,62.84,98.48Z"/>
        <g>
          <line class="cls-3" x1="28.99" y1="52.1" x2="41.4" y2="62.53"/>
          <line class="cls-3" x1="36.03" y1="54.11" x2="41.56" y2="58.63"/>
        </g>
        <g>
          <g>
            <line class="cls-3" x1="90.33" y1="108.99" x2="84.8" y2="103.46"/>
            <line class="cls-3" x1="95.41" y1="114.07" x2="93.5" y2="112.16"/>
          </g>
          <line class="cls-3" x1="103.77" y1="115.35" x2="91.17" y2="102.76"/>
        </g>
        <g>
          <g>
            <line class="cls-4" x1="47.86" y1="20.53" x2="42.67" y2="15.34"/>
            <line class="cls-4" x1="52.63" y1="25.31" x2="50.84" y2="23.51"/>
          </g>
          <line class="cls-4" x1="59.55" y1="25.57" x2="48.65" y2="14.68"/>
        </g>
        <g>
          <g>
            <line class="cls-4" x1="20.45" y1="69.78" x2="17.95" y2="69.78"/>
            <line class="cls-4" x1="20.45" y1="64.17" x2="17.95" y2="64.17"/>
            <line class="cls-4" x1="20.45" y1="58.55" x2="17.95" y2="58.55"/>
            <line class="cls-4" x1="20.45" y1="81" x2="17.95" y2="81"/>
            <line class="cls-4" x1="20.45" y1="75.39" x2="17.95" y2="75.39"/>
            <line class="cls-4" x1="20.45" y1="69.78" x2="17.95" y2="69.78"/>
            <line class="cls-4" x1="20.45" y1="92.22" x2="17.95" y2="92.22"/>
            <line class="cls-4" x1="20.45" y1="86.61" x2="17.95" y2="86.61"/>
            <line class="cls-4" x1="20.45" y1="81" x2="17.95" y2="81"/>
            <line class="cls-4" x1="20.45" y1="103.44" x2="17.95" y2="103.44"/>
            <line class="cls-4" x1="20.45" y1="97.83" x2="17.95" y2="97.83"/>
            <line class="cls-4" x1="20.45" y1="92.22" x2="17.95" y2="92.22"/>
          </g>
          <line class="cls-4" x1="20.45" y1="36.11" x2="17.95" y2="36.11"/>
          <line class="cls-4" x1="20.45" y1="30.5" x2="17.95" y2="30.5"/>
          <line class="cls-4" x1="20.45" y1="47.33" x2="17.95" y2="47.33"/>
          <line class="cls-4" x1="20.45" y1="41.72" x2="17.95" y2="41.72"/>
          <line class="cls-4" x1="20.45" y1="36.11" x2="17.95" y2="36.11"/>
          <line class="cls-4" x1="20.45" y1="58.55" x2="17.95" y2="58.55"/>
          <line class="cls-4" x1="20.45" y1="52.94" x2="17.95" y2="52.94"/>
          <line class="cls-4" x1="20.45" y1="47.33" x2="17.95" y2="47.33"/>
        </g>
        <path class="cls-4" d="M27.93,27.38v79.81a1.25,1.25,0,0,1-1.25,1.24H18a1.25,1.25,0,0,1-1.25-1.24V72.62L17,72.1a.4.4,0,0,0-.25-.55V27.38A1.26,1.26,0,0,1,18,26.13h8.73A1.26,1.26,0,0,1,27.93,27.38Z"/>
        <g>
          <polygon class="cls-4" points="92.66 56.98 92.66 98.48 51.16 98.48 51.16 88.11 82.28 88.11 82.28 56.98 92.66 56.98"/>
          <polyline class="cls-4" points="82.28 78.99 82.28 56.98 51.16 56.98 51.16 88.11 74.21 88.11"/>
          <polygon class="cls-4" points="82.28 46.61 82.28 56.98 51.16 56.98 51.16 88.11 40.78 88.11 40.78 46.61 82.28 46.61"/>
          <line class="cls-4" x1="41.16" y1="46.99" x2="51.16" y2="56.98"/>
          <line class="cls-4" x1="40.4" y1="88.51" x2="49.91" y2="98.48"/>
          <line class="cls-4" x1="82.67" y1="46.99" x2="92.66" y2="56.98"/>
          <line class="cls-4" x1="82.67" y1="87.72" x2="92.66" y2="98.48"/>
        </g>
        <line class="cls-4" x1="84.96" y1="26.15" x2="84.96" y2="26.14"/>
        <line class="cls-4" x1="84.75" y1="30.33" x2="58.47" y2="30.33"/>
        <line class="cls-4" x1="53.03" y1="28.66" x2="55.06" y2="28.66"/>
        <path class="cls-4" d="M42.19,29.74a.43.43,0,0,1,.21-.21L52,26.15H90.84a3.36,3.36,0,0,1,3.36,3.35v.83a3.34,3.34,0,0,1-3.37,3.37H52L43,30.5"/>
        <line class="cls-4" x1="88.72" y1="26.14" x2="88.72" y2="33.69"/>
      </g>
    </g>
  </g>
</svg>
