<svg xmlns="http://www.w3.org/2000/svg" xmlns:xlink="http://www.w3.org/1999/xlink" viewBox="0 0 94.28 110.56">
  <defs>
    <style>
      .cls-1 {
        fill: url(#Gradient_bez_nazwy_15);
      }

      .cls-2, .cls-3, .cls-5 {
        fill: none;
        stroke-miterlimit: 10;
        stroke-width: 1.6px;
      }

      .cls-2 {
        stroke: #fff;
      }

      .cls-2, .cls-3 {
        stroke-linecap: round;
      }

      .cls-3, .cls-5 {
        stroke: #4f45b4;
      }

      .cls-4 {
        fill: url(#Gradient_bez_nazwy_15-2);
      }
    </style>
    <linearGradient id="Gradient_bez_nazwy_15" data-name="Gradient bez nazwy 15" x1="1.29" y1="98.66" x2="109.79" y2="29.2" gradientUnits="userSpaceOnUse">
      <stop offset="0" stop-color="#4f45b4"/>
      <stop offset="1" stop-color="#ab45b4"/>
    </linearGradient>
    <linearGradient id="Gradient_bez_nazwy_15-2" x1="-21.44" y1="63.16" x2="87.06" y2="-6.3" xlink:href="#Gradient_bez_nazwy_15"/>
  </defs>
  <title>Zasób 3</title>
  <g id="Warstwa_2" data-name="Warstwa 2">
    <g id="Warstwa_1-2" data-name="Warstwa 1">
      <g>
        <path class="cls-1" d="M91.19,91.09c-5,2-7.94-5-16.87-3C64.54,90.28,60.43,83.47,58.7,77h4.53A4.74,4.74,0,0,0,68,72.28V31.48a4.75,4.75,0,0,0-4.74-4.75h-14v4.06a2.56,2.56,0,0,1,0,.39,49.76,49.76,0,0,0-2.64-11.49,0,0,0,0,1,0,0l.07.07,1.74,2h0c.38.16,9.26-3.25,17-9.08,7.94-5.95,25.31-8,23.81,7-1,9.92-19.14,18.56-8.93,28.78,6,5.95,9.93,5.95,9.93,12.9,0,7.22-7,7.93-2,14.88,1.7,2.38,5,4,6,8.93A5.51,5.51,0,0,1,91.19,91.09Z"/>
        <g>
          <line class="cls-2" x1="80.58" y1="69.93" x2="67.93" y2="59.3"/>
          <line class="cls-2" x1="73.41" y1="67.88" x2="67.77" y2="63.27"/>
        </g>
        <g>
          <line class="cls-3" x1="56.62" y1="39.15" x2="63.25" y2="45.78"/>
          <line class="cls-3" x1="65.68" y1="48.21" x2="67.13" y2="49.66"/>
        </g>
        <g>
          <line class="cls-3" x1="14.94" y1="57.01" x2="21.57" y2="63.64"/>
          <line class="cls-3" x1="24" y1="66.08" x2="25.45" y2="67.52"/>
        </g>
        <path class="cls-4" d="M27,12.74c-.05,1-.38,4.82-2.72,6.39-2.1,1.4-2,4.24-1.91,7.6h-3a4.75,4.75,0,0,0-4.75,4.75v40.8a4.64,4.64,0,0,0,.66,2.39C10.56,76.46,2.57,77.79.44,67.06c-3-15.42,10.58-19,9.4-30.84C9,27.49,3,.07,25.18,3.76v9Z"/>
        <path class="cls-5" d="M41.27,58.59a5.53,5.53,0,1,0,5.53,5.52A5.52,5.52,0,0,0,41.27,58.59Zm9,18.44H48.11a6.89,6.89,0,0,0-13.67,0H19.32a4.72,4.72,0,0,1-4.08-2.36,4.64,4.64,0,0,1-.66-2.39V31.48a4.75,4.75,0,0,1,4.74-4.75h3c0,.93.09,1.89.09,2.87v6.84a2.74,2.74,0,0,0,2.74,2.73,2.69,2.69,0,0,0,1.23-.3,2.74,2.74,0,0,0,1.5-2.43v1.81a2.74,2.74,0,1,0,5.47,0,2.73,2.73,0,1,0,5.46,0V50.1a2.73,2.73,0,0,0,5.46,0V30.79a2.46,2.46,0,0,0,4.89.39"/>
        <circle class="cls-5" cx="41.27" cy="64.11" r="5.53" transform="translate(-25.6 100.74) rotate(-85.93)"/>
        <rect class="cls-5" x="33.83" y="93.66" width="14.89" height="16.09" rx="4" ry="4"/>
        <rect class="cls-5" x="8.23" y="93.66" width="14.89" height="16.09" rx="4" ry="4"/>
        <line class="cls-5" x1="41.22" y1="77.91" x2="41.22" y2="93.66"/>
        <path class="cls-5" d="M15.67,93.42,24.21,86a.94.94,0,0,1,.64-.24H41.1"/>
        <rect class="cls-5" x="59.43" y="93.66" width="14.89" height="16.09" rx="4" ry="4" transform="translate(133.75 203.42) rotate(-180)"/>
        <path class="cls-5" d="M41.44,85.79H57.7a1,1,0,0,1,.64.24l4.77,4.13h0l.1.08,3.65,3.18"/>
        <g>
          <path class="cls-5" d="M48.11,77H34.44a6.89,6.89,0,0,1,13.67,0Z"/>
          <g>
            <circle class="cls-5" cx="41.27" cy="64.11" r="5.53" transform="translate(-6.12 4.38) rotate(-5.65)"/>
            <path class="cls-5" d="M34.44,77a5.37,5.37,0,0,0-.07.9"/>
            <path class="cls-5" d="M48.18,77.93a5.37,5.37,0,0,0-.07-.9"/>
          </g>
        </g>
        <path class="cls-5" d="M27,12.47s0,.1,0,.27c-.05,1-.38,4.82-2.72,6.39-2.1,1.4-2,4.24-1.91,7.6"/>
        <path class="cls-5" d="M40.66,12.47s-.92,6.66,3.64,6.66c5,0,5,6.52,4.92,7.6"/>
        <line class="cls-5" x1="44.3" y1="30.79" x2="44.3" y2="26.73"/>
        <polyline class="cls-5" points="44.3 25.96 44.3 26.73 44.3 30.79"/>
        <polygon class="cls-5" points="33.94 12.49 43.05 12.49 43.05 0.8 25.18 0.8 25.26 12.49 33.94 12.49"/>
        <line class="cls-5" x1="38.84" y1="38.25" x2="38.84" y2="32.79"/>
        <line class="cls-5" x1="33.37" y1="38.25" x2="33.37" y2="33.24"/>
        <polyline class="cls-5" points="27.91 36.44 27.91 32.26 27.91 31.43"/>
        <path class="cls-3" d="M51.71,85.79h6a1,1,0,0,1,.64.24l4.77,4.13m-13.92-59a2.56,2.56,0,0,0,0-.39V26.73h14A4.75,4.75,0,0,1,68,31.48v40.8A4.75,4.75,0,0,1,63.23,77h-13m8.44,0h4.53A4.75,4.75,0,0,0,68,72.28V31.48"/>
        <g>
          <line class="cls-2" x1="11.52" y1="6.38" x2="21.15" y2="15.02"/>
          <line class="cls-2" x1="14.63" y1="15.74" x2="6.81" y2="7.92"/>
        </g>
        <line class="cls-5" x1="7.83" y1="99.99" x2="22.72" y2="99.99"/>
        <line class="cls-5" x1="34.63" y1="99.99" x2="49.51" y2="99.99"/>
        <line class="cls-5" x1="58.44" y1="99.99" x2="73.33" y2="99.99"/>
      </g>
    </g>
  </g>
</svg>
