<svg xmlns="http://www.w3.org/2000/svg" viewBox="0 0 550.84 91.37">
  <defs>
    <style>
      .cls-1 {
        font-size: 86.73px;
        font-family: Montserrat-Hairline, Montserrat;
        letter-spacing: -0.02em;
        fill: white;
      }
    </style>
  </defs>
  <title>Zasób 2</title>
  <g data-name="Warstwa 2" class="cls-1">
    <g data-name="Warstwa 1">
      <path
        d="M253.63 22.72l-.86 1.48a20.41 20.41 0 0 0-11-2.95c-7 0-12.58 2.78-12.58 8.85 0 13.44 27 7 27 22.63 0 8.07-7.29 11.63-15.09 11.63a22.62 22.62 0 0 1-16.1-6.25l1.13-1.3a21 21 0 0 0 14.92 5.81c7 0 13.09-2.95 13.35-9.45.52-13.79-27-7.81-27-22.9 0-7.37 6.5-10.75 14.22-10.75a23.42 23.42 0 0 1 12.01 3.2zm51.69 19.17c0 13.1-9.28 22.47-21.77 22.47S261.78 55 261.78 41.89s9.28-22.37 21.77-22.37 21.77 9.36 21.77 22.37zm-41.8 0c0 12.23 8.41 20.73 20 20.73s20-8.5 20-20.73-8.42-20.64-20-20.64-20 8.5-20 20.64zm56.02-27.84v6.33h14.57v1.74h-14.57v42.24h-1.73V22.12h-5.64v-1.74h5.64v-6.33c0-8 5.64-14.14 12.66-14a15.54 15.54 0 0 1 8.85 3.21l-1 1.39a13.6 13.6 0 0 0-7.81-2.86c-6.2-.14-10.97 5.15-10.97 12.26zm40.85 47.1a15.18 15.18 0 0 1-8.84 3.21C345.3 64.44 342 60.19 342 52V22.12h-6.6v-1.74h6.6V9.71h1.73v10.67h15.79v1.74h-15.78V52c0 6.94 2.69 10.67 7.81 10.58a13.1 13.1 0 0 0 7.8-2.86zm51.87 3.21l-16-42.42-16.09 42.42h-1.91l-17.09-44.84h2.08l16.05 42.84 15.87-42.84h2.08l16.05 42.84 16-42.84h2l-17.14 44.84zm54.81-10.15c-4 7-10.76 10.15-18.82 10.15-8.68 0-14.57-5.47-14.57-12.93 0-7.28 6.41-11.53 16.65-11.53H467v-5.47c-.09-8.24-4.77-13.18-14.22-13.18-6 0-10.84 2.43-15.7 6.25l-1-1.39c5-4 10.41-6.59 16.74-6.59 10.32 0 15.87 5.81 16 14.91l.17 29.93h-1.74zm0-3.91l-.07-8.67h-16.67c-9.54 0-14.92 3.56-14.92 9.8 0 6.59 5 11.19 12.92 11.19 8.67 0 15.18-3.47 18.74-12.32zm18.99-18.55c2.69-7.64 8.67-12.06 17.17-12.23v1.73c-10.14.26-16.39 7.11-17.17 18.56v24.55h-1.73V19.52h1.73zm57.85 24.37l1.21 1.21a22.89 22.89 0 0 1-17.08 7c-12.41 0-21.6-9.37-21.6-22.47s9.19-22.37 21.6-22.37 20.81 9.36 20.81 22.37h-40.67c0 12.23 8.32 20.73 19.86 20.73 6.5.03 12.14-2.31 15.87-6.47zm-35.65-16h38.86c-.78-11.19-8-18.91-19.08-18.91-10.93.04-19.04 7.79-19.78 18.95zM37.08 57.9V34a14.31 14.31 0 0 0-1.4-6.7 11 11 0 0 0-3.76-4.18A14.73 14.73 0 0 0 26.34 21a38.61 38.61 0 0 0-6.88-.58 27.27 27.27 0 0 0-6.12.67 19.47 19.47 0 0 0-5.25 2 11.14 11.14 0 0 0-3.71 3.27A7.58 7.58 0 0 0 3 30.84a5.33 5.33 0 0 0 .53 2.6 4.14 4.14 0 0 0 1.3 1.49 4 4 0 0 0 1.78.68 14.85 14.85 0 0 0 2 .14h1.69a5.48 5.48 0 0 0 1.92-.43 4.12 4.12 0 0 0 1.59-1.21 3.43 3.43 0 0 0 .68-2.26c0-.19 0-.54-.1-1.06s-.13-1.06-.19-1.63S14 28 14 27.52a8.13 8.13 0 0 1-.1-1c0-1.8.54-3 1.64-3.71a7.11 7.11 0 0 1 3.85-1c2.31 0 3.88.7 4.72 2.12a9.13 9.13 0 0 1 1.25 4.72v5.85a7.31 7.31 0 0 1-.53 3 5.19 5.19 0 0 1-1.88 2.06 15.33 15.33 0 0 1-3.8 1.74c-1.64.55-3.77 1.2-6.41 2Q10.31 44 8 44.85A16 16 0 0 0 4 47a10.57 10.57 0 0 0-2.89 3.18A9 9 0 0 0 0 54.82a8.07 8.07 0 0 0 1.25 4.57 8.77 8.77 0 0 0 3.28 2.94A16.12 16.12 0 0 0 9 63.87a24.08 24.08 0 0 0 4.72.48c3.4 0 6-.44 7.8-1.35a9.28 9.28 0 0 0 4.23-5.2h.2a7.42 7.42 0 0 0 2.93 4.82c1.58 1.16 4 1.71 7.27 1.73h1zm-11.75-6a17 17 0 0 1-.58 4.77 9.16 9.16 0 0 1-1.54 3.18A6.25 6.25 0 0 1 21 61.66a5.68 5.68 0 0 1-2.45.58 5.33 5.33 0 0 1-3.47-1 6.43 6.43 0 0 1-1.88-2.45 10.14 10.14 0 0 1-.77-3c-.09-1-.14-1.92-.14-2.69a10.56 10.56 0 0 1 .91-4.72 10 10 0 0 1 2.36-3.09 13.42 13.42 0 0 1 3.28-2.07c1.21-.54 2.44-1.1 3.66-1.68a7.74 7.74 0 0 0 1.87-1.2 2.92 2.92 0 0 0 .73-1.11h.19zm192.04-31.46l-9.81 26.39h-.05l-1.92 5.2.8-7.69-9.35-23.9H184.6l2.31 5.89-7.6 20.5h-.05l-1.92 5.2.8-7.7-9.34-23.89h-12.44l2.31 5.9-3.14 8.46-6.36 17.23.79-7.55-9.4-24.04h-12.45l2.32 5.89-7.61 20.5h-.06l-1.92 5.2.81-7.72-9.34-23.87H99.87l2.31 5.9-5.25 14.16-4.26 11.53.79-7.57-9.39-24.02H71.63l2.31 5.89-7.6 20.5h-.08l-1.92 5.2.81-7.75-9.33-23.84H43.38l17.27 43.91h.68l13.39-36.03L88.9 64.35h.67l13.39-36.02 14.18 36.02h.68l13.38-36.01 13.22 33.56.97 2.45h.67l13.4-35.97 14.17 35.97h.67l13.39-36.02 14.19 36.02h.67l16.36-43.91h-1.54z"></path>
      <circle cx="217.05" cy="62.49" r="1.86"></circle>
    </g>
  </g>
</svg>
