<svg xmlns="http://www.w3.org/2000/svg" viewBox="0 0 218.91 43.92">
  <title>Zasób 3</title>
  <g id="Warstwa_2" data-name="Warstwa 2">
    <g id="Warstwa_1-2" data-name="Warstwa 1">
      <path d="M37.08,37.46V13.58a14.24,14.24,0,0,0-1.4-6.69A10.91,10.91,0,0,0,31.92,2.7,14.9,14.9,0,0,0,26.34.58,38.61,38.61,0,0,0,19.46,0a27.27,27.27,0,0,0-6.12.68,19.46,19.46,0,0,0-5.25,2A11.25,11.25,0,0,0,4.38,5.92,7.58,7.58,0,0,0,3,10.4,5.3,5.3,0,0,0,3.52,13a4.18,4.18,0,0,0,1.3,1.5,4.16,4.16,0,0,0,1.78.67,14.85,14.85,0,0,0,2,.14c.45,0,1,0,1.69-.05a5.48,5.48,0,0,0,1.92-.43,4,4,0,0,0,1.59-1.2,3.46,3.46,0,0,0,.68-2.26c0-.2,0-.55-.1-1.07s-.13-1.05-.19-1.63S14,7.56,14,7.08a8,8,0,0,1-.1-1c0-1.8.54-3,1.64-3.71a7.2,7.2,0,0,1,3.85-1q3.47,0,4.72,2.12a9.13,9.13,0,0,1,1.25,4.72v5.87a7.28,7.28,0,0,1-.53,3,5.21,5.21,0,0,1-1.88,2.07,15.73,15.73,0,0,1-3.8,1.73c-1.64.55-3.77,1.21-6.41,2q-2.4.78-4.67,1.59a16,16,0,0,0-4,2.12,10.57,10.57,0,0,0-2.89,3.18A9,9,0,0,0,0,34.38,8.13,8.13,0,0,0,1.25,39a8.66,8.66,0,0,0,3.28,2.93A16.47,16.47,0,0,0,9,43.44a24.84,24.84,0,0,0,4.72.47,17.93,17.93,0,0,0,7.8-1.34,9.31,9.31,0,0,0,4.23-5.2h.2a7.4,7.4,0,0,0,2.93,4.81c1.58,1.16,4,1.72,7.27,1.74h1Zm-11.75-6a17,17,0,0,1-.58,4.77,9.07,9.07,0,0,1-1.54,3.18A6.25,6.25,0,0,1,21,41.22a5.54,5.54,0,0,1-2.45.58,5.39,5.39,0,0,1-3.47-1,6.54,6.54,0,0,1-1.88-2.46,10.06,10.06,0,0,1-.77-3c-.09-1-.14-1.92-.14-2.69a10.56,10.56,0,0,1,.91-4.72,9.84,9.84,0,0,1,2.36-3.08,13.13,13.13,0,0,1,3.28-2.07c1.21-.55,2.44-1.11,3.66-1.69a7.45,7.45,0,0,0,1.87-1.2,2.85,2.85,0,0,0,.73-1.11h.19Z"/>
      <polygon points="217.37 0 207.56 26.39 207.51 26.39 205.59 31.59 206.39 23.9 197.04 0 184.6 0 186.91 5.89 179.31 26.39 179.26 26.39 177.34 31.59 178.14 23.89 168.8 0 156.36 0 158.67 5.9 155.53 14.36 149.17 31.59 149.96 24.05 140.56 0 140.56 0 128.12 0 128.11 0 130.43 5.89 122.82 26.39 122.76 26.39 120.84 31.59 121.65 23.87 112.31 0 112.31 0 99.87 0 99.87 0 102.18 5.9 96.93 20.06 92.67 31.59 93.46 24.02 84.07 0 71.63 0 73.94 5.89 66.34 26.39 66.26 26.39 64.34 31.59 65.15 23.84 55.82 0 43.38 0 60.65 43.92 61.33 43.92 74.72 7.88 88.9 43.92 89.57 43.92 102.96 7.9 117.14 43.92 117.14 43.92 117.82 43.92 117.82 43.92 131.2 7.9 144.42 41.46 145.39 43.92 145.39 43.92 146.06 43.92 146.06 43.92 159.46 7.94 173.63 43.92 174.3 43.92 187.69 7.9 201.88 43.92 202.55 43.92 218.91 0 217.37 0"/>
    </g>
  </g>
</svg>
