<svg xmlns="http://www.w3.org/2000/svg" xmlns:xlink="http://www.w3.org/1999/xlink" viewBox="0 0 94.31 116.45">
  <defs>
    <style>
      .Styl-grafiki {
        fill: url(#Gradient_bez_nazwy_15);
      }

      .cls-1, .cls-2, .cls-3 {
        fill: none;
        stroke-miterlimit: 10;
        stroke-width: 1.6px;
      }

      .cls-1, .cls-2 {
        stroke: #4f45b4;
      }

      .cls-1, .cls-3 {
        stroke-linecap: round;
      }

      .cls-3 {
        stroke: #fff;
      }

      .cls-4 {
        fill: #fff;
      }
    </style>
    <linearGradient id="Gradient_bez_nazwy_15" data-name="Gradient bez nazwy 15" y1="50.83" x2="77.17" y2="50.83" gradientUnits="userSpaceOnUse">
      <stop offset="0" stop-color="#4f45b4"/>
      <stop offset="1" stop-color="#ab45b4"/>
    </linearGradient>
  </defs>
  <title>Zasób 2</title>
  <g id="Warstwa_2" data-name="Warstwa 2">
    <g id="Warstwa_1-2" data-name="Warstwa 1">
      <g>
        <path class="Styl-grafiki" d="M23.61,101.65s0-9-7-11c-5.85-1.67-14-7-6-19,2.46-3.68,8.2-5.14-7-16-7-5-3-13,5-17.76,2-1.21,4.08-2.83,1-11.24-4-11,2.44-28.7,17-19,6,4,5.77-3.49,12-1,5,2,7,9,11,5,1.91-1.91,6-7,6-7,7-8,18.39-4.82,21,3,2,6-1.7,11.82-6,11.84l-40.8.15a6.26,6.26,0,0,0-6.21,5.55,15.7,15.7,0,0,0-.08,1.6V59.62"/>
        <g>
          <path class="cls-1" d="M78.23,36.45v-13a4,4,0,0,0-4-4H27.14a4,4,0,0,0-4,4v67.2"/>
          <polyline class="cls-1" points="78.23 41.45 78.23 67.65 78.23 64.65"/>
          <path class="cls-1" d="M78.23,92.65v18.83a4,4,0,0,1-4,4H27.14a4,4,0,0,1-4-4V91"/>
          <line class="cls-1" x1="23.52" y1="28.73" x2="77.61" y2="28.73"/>
          <line class="cls-1" x1="23.14" y1="101.71" x2="78.23" y2="101.71"/>
          <line class="cls-1" x1="44.56" y1="24.28" x2="57.57" y2="24.28"/>
          <circle class="cls-1" cx="51.06" cy="108.6" r="3.83"/>
        </g>
        <g>
          <line class="cls-1" x1="30.77" y1="81.63" x2="46.95" y2="81.63"/>
          <line class="cls-1" x1="30.77" y1="86.37" x2="46.95" y2="86.37"/>
        </g>
        <line class="cls-1" x1="30.77" y1="91.37" x2="46.95" y2="91.37"/>
        <path class="cls-1" d="M90.2,81.78a11.89,11.89,0,0,0-.65-5.85l2.77-2.2L91,71.45l-2,.82-1.19.49a11.92,11.92,0,0,0-4.59-3.69l.39-3.5-2.55-.67-1.32,3.16a11.89,11.89,0,0,0-5.85.65l-2.2-2.77-2.28,1.34,1.31,3.17A11.92,11.92,0,0,0,67,75l-3.5-.39-.67,2.55L66,78.52a11.89,11.89,0,0,0,.65,5.85l-2.77,2.2,1.34,2.28,3.17-1.31A11.92,11.92,0,0,0,73,91.23l-.39,3.5,2.55.67,1.32-3.16a11.89,11.89,0,0,0,5.85-.65l2.2,2.77L86.81,93,85.5,89.85a11.92,11.92,0,0,0,3.69-4.59l2.63.29.87.1.67-2.55Z"/>
        <rect class="cls-2" x="29.61" y="47.65" width="30" height="25.82" rx="2" ry="2"/>
        <path class="cls-2" d="M70.61,38.65v12a2,2,0,0,1-2,2h-9v-3a2,2,0,0,0-2-2h-9v-9a2,2,0,0,1,2-2h18A2,2,0,0,1,70.61,38.65Z"/>
        <line class="cls-2" x1="29.61" y1="52.65" x2="59.61" y2="52.65"/>
        <line class="cls-2" x1="48.61" y1="40.65" x2="70.61" y2="40.65"/>
        <path class="cls-1" d="M38.13,58.17l-5,4.4a.36.36,0,0,0,0,.56l5,4.4"/>
        <path class="cls-1" d="M51.44,67.89l5-4.4a.36.36,0,0,0,0-.55l-5.05-4.77"/>
        <line class="cls-1" x1="47.97" y1="58.35" x2="41.25" y2="67.72"/>
        <g>
          <line class="cls-1" x1="78.77" y1="47.32" x2="85.46" y2="54"/>
          <line class="cls-1" x1="87.91" y1="56.45" x2="89.36" y2="57.9"/>
        </g>
        <g>
          <line class="cls-3" x1="17.84" y1="57.97" x2="25.23" y2="65.37"/>
          <line class="cls-3" x1="11.99" y1="52.12" x2="13.6" y2="53.73"/>
        </g>
        <g>
          <g>
            <line class="cls-3" x1="61.47" y1="7.66" x2="67" y2="13.19"/>
            <line class="cls-3" x1="56.39" y1="2.58" x2="58.3" y2="4.49"/>
          </g>
          <line class="cls-3" x1="48.04" y1="1.3" x2="60.64" y2="13.9"/>
        </g>
        <circle class="cls-4" cx="78.11" cy="80.15" r="4.5"/>
        <circle class="cls-2" cx="78.11" cy="80.15" r="4"/>
        <g>
          <line class="cls-1" x1="91.61" y1="115.65" x2="79.11" y2="103.15"/>
          <line class="cls-1" x1="82.61" y1="111.65" x2="79.11" y2="108.15"/>
        </g>
      </g>
    </g>
  </g>
</svg>
